<?xml version="1.0" encoding="utf-8"?>
<svg xmlns="http://www.w3.org/2000/svg" version="1.1" width="1000" height="800">

<polygon points=" 100,100 100,400 500,400 500,100" style="fill:green" />
<polygon points=" 100,400 100,430 500,430 500,400" style="fill:rgb(200,200,200)" />
<polygon points=" 270,290 270,400 330,400 330,290" style="fill:rgb(150,255,200)" />
<polygon points=" 322.929,337.929 337.071,352.071 393.64,295.503 379.497,281.36" style="fill:rgb(50,100,150)" />
<polygon points=" 349.771,339.371 363.913,353.514 370.984,346.442 356.842,332.3" style="fill:rgb(50,200,50)" />
<polygon points=" 359.02,335.836 369.626,346.442 390.839,325.229 380.233,314.623" style="fill:rgb(220,150,200)" />
<polygon points=" 376.669,312.473 390.811,326.615 397.882,319.544 383.74,305.402" style="fill:rgb(50,200,50)" />
<polygon points=" 70,100 70,430 100,430 100,100" style="fill:rgb(200,200,200)" />
<polygon points=" 500,100 500,430 530,430 530,100" style="fill:rgb(200,200,200)" />


</svg>
